<svg xmlns="http://www.w3.org/2000/svg" xmlns:xlink="http://www.w3.org/1999/xlink"
     
     viewBox="0 0 1200 700" opacity="0.1">
    
    <a xlink:href="http://www.google.com">
        <path id="Monday"
           fill="rgba(124,240,10,0)" stroke="black" stroke-width="1" fill-opacity="0" stroke-opacity="1.0"
          d="M 350.00,31.00
              C 350.00,31.00 350.00,75.00 350.00,75.00
                 350.00,75.00 189.00,75.00 189.00,75.00
                 189.00,75.00 189.00,31.00 189.00,31.00
                 189.00,31.00 350.00,31.00 350.00,31.00 Z" />
    </a>
    <a xlink:href="http://www.google.com">
      <path id="Tuesday"
        fill="blue" stroke="black" stroke-width="1" ffill-opacity: 0.01;
        d="M 519.00,31.00
           C 519.00,31.00 519.00,74.00 519.00,74.00
             519.00,74.00 358.00,74.00 358.00,74.00
             358.00,74.00 358.00,31.00 358.00,31.00
             358.00,31.00 519.00,31.00 519.00,31.00 Z" />
    </a> 
    <a xlink:href="http://www.google.com">
        <path id="Wednesday"
           fill="blue" stroke="black" stroke-width="1" ffill-opacity: 0.01;
          d="M 688.00,31.00
           C 688.00,31.00 688.00,74.00 688.00,74.00
             688.00,74.00 528.00,74.00 528.00,74.00
             528.00,74.00 528.00,31.00 528.00,31.00
             528.00,31.00 688.00,31.00 688.00,31.00 Z" />
    </a>
    <a xlink:href="http://www.google.com">
        <path id="Thursday"
           fill="blue" stroke="black" stroke-width="1" ffill-opacity: 0.01;
          d="M 860.00,31.00
           C 860.00,31.00 860.00,75.00 860.00,75.00
             860.00,75.00 699.00,75.00 699.00,75.00
             699.00,75.00 699.00,31.00 699.00,31.00
             699.00,31.00 860.00,31.00 860.00,31.00 Z" />
    </a>
    <a xlink:href="http://www.google.com">
        <path id="Friday"
           fill="blue" stroke="black" stroke-width="1" ffill-opacity: 0.01;
          d="M 1029.00,31.00
           C 1029.00,31.00 1029.00,75.00 1029.00,75.00
             1029.00,75.00 868.00,75.00 868.00,75.00
             868.00,75.00 868.00,31.00 868.00,31.00
             868.00,31.00 1029.00,31.00 1029.00,31.00 Z" />
    </a>
    <a xlink:href="http://www.google.com">
        <path id="Saturday"
           fill="blue" stroke="black" stroke-width="1" ffill-opacity: 0.01;
          d="M 1199.00,31.00
           C 1199.00,31.00 1199.00,75.00 1199.00,75.00
             1199.00,75.00 1038.00,75.00 1038.00,75.00
             1038.00,75.00 1038.00,31.00 1038.00,31.00
             1038.00,31.00 1199.00,31.00 1199.00,31.00 Z" />
    </a>
    <a xlink:href="http://www.google.com">
        <path id="Monday"
           fill="blue" stroke="black" stroke-width="1" ffill-opacity: 0.01;
          d="M 163.00,116.00
           C 163.00,116.00 163.00,183.00 163.00,183.00
             163.00,183.00 2.00,183.00 2.00,183.00
             2.00,183.00 2.00,116.00 2.00,116.00
             2.00,116.00 163.00,116.00 163.00,116.00 Z" />
    </a>
    <a xlink:href="http://www.google.com">
        <path id="Monday"
           fill="blue" stroke="black" stroke-width="1" ffill-opacity: 0.01;
          d="M 1198.00,118.00
           C 1198.00,118.00 1198.00,185.00 1198.00,185.00
             1198.00,185.00 1037.00,185.00 1037.00,185.00
             1037.00,185.00 1037.00,118.00 1037.00,118.00
             1037.00,118.00 1198.00,118.00 1198.00,118.00 Z" />
    </a>
    <a xlink:href="http://www.google.com">
        <path id="Monday"
           fill="blue" stroke="black" stroke-width="1" ffill-opacity: 0.01;
          d="M 163.00,201.00
           C 163.00,201.00 163.00,268.00 163.00,268.00
             163.00,268.00 2.00,268.00 2.00,268.00
             2.00,268.00 2.00,201.00 2.00,201.00
             2.00,201.00 163.00,201.00 163.00,201.00 Z" />
    </a>
    <a xlink:href="http://www.google.com">
        <path id="Monday"
           fill="blue" stroke="black" stroke-width="1" ffill-opacity: 0.01;
          d="M 350.00,201.00
           C 350.00,201.00 350.00,268.00 350.00,268.00
             350.00,268.00 189.00,268.00 189.00,268.00
             189.00,268.00 189.00,201.00 189.00,201.00
             189.00,201.00 350.00,201.00 350.00,201.00 Z" />
    </a>
    <a xlink:href="http://www.google.com">
        <path id="Monday"
           fill="blue" stroke="black" stroke-width="1" ffill-opacity: 0.01;
          d="M 521.00,202.00
           C 521.00,202.00 521.00,269.00 521.00,269.00
             521.00,269.00 360.00,269.00 360.00,269.00
             360.00,269.00 360.00,202.00 360.00,202.00
             360.00,202.00 521.00,202.00 521.00,202.00 Z" />
    </a>
    <a xlink:href="http://www.google.com">
        <path id="Monday"
           fill="blue" stroke="black" stroke-width="1" ffill-opacity: 0.01;
          d="M 690.00,202.00
           C 690.00,202.00 690.00,269.00 690.00,269.00
             690.00,269.00 529.00,269.00 529.00,269.00
             529.00,269.00 529.00,202.00 529.00,202.00
             529.00,202.00 690.00,202.00 690.00,202.00 Z" />
    </a>
    <a xlink:href="http://www.google.com">
        <path id="Monday"
           fill="blue" stroke="black" stroke-width="1" ffill-opacity: 0.01;
          d="M 1199.00,202.00
           C 1199.00,202.00 1199.00,269.00 1199.00,269.00
             1199.00,269.00 1038.00,269.00 1038.00,269.00
             1038.00,269.00 1038.00,202.00 1038.00,202.00
             1038.00,202.00 1199.00,202.00 1199.00,202.00 Z" />
    </a>
    <a xlink:href="http://www.google.com">
        <path id="Monday"
           fill="blue" stroke="black" stroke-width="1" ffill-opacity: 0.01;
          d="M 860.00,203.00
           C 860.00,203.00 860.00,270.00 860.00,270.00
             860.00,270.00 699.00,270.00 699.00,270.00
             699.00,270.00 699.00,203.00 699.00,203.00
             699.00,203.00 860.00,203.00 860.00,203.00 Z" />
    </a>
    <a xlink:href="http://www.google.com">
        <path id="Monday"
           fill="blue" stroke="black" stroke-width="1" ffill-opacity: 0.01;
          d="M 163.00,286.00
           C 163.00,286.00 163.00,353.00 163.00,353.00
             163.00,353.00 2.00,353.00 2.00,353.00
             2.00,353.00 2.00,286.00 2.00,286.00
             2.00,286.00 163.00,286.00 163.00,286.00 Z" />
    </a>
    <a xlink:href="http://www.google.com">
        <path id="Monday"
           fill="blue" stroke="black" stroke-width="1" ffill-opacity: 0.01;
          d="M 1199.00,286.00
           C 1199.00,286.00 1199.00,353.00 1199.00,353.00
             1199.00,353.00 1038.00,353.00 1038.00,353.00
             1038.00,353.00 1038.00,286.00 1038.00,286.00
             1038.00,286.00 1199.00,286.00 1199.00,286.00 Z" />
    </a>
    <a xlink:href="http://www.google.com">
        <path id="Monday"
           fill="blue" stroke="black" stroke-width="1" ffill-opacity: 0.01;
          d="M 350.00,287.00
           C 350.00,287.00 350.00,354.00 350.00,354.00
             350.00,354.00 189.00,354.00 189.00,354.00
             189.00,354.00 189.00,287.00 189.00,287.00
             189.00,287.00 350.00,287.00 350.00,287.00 Z" />
    </a>
    <a xlink:href="http://www.google.com">
        <path id="Monday"
           fill="blue" stroke="black" stroke-width="1" ffill-opacity: 0.01;
          d="M 690.00,287.00
           C 690.00,287.00 690.00,354.00 690.00,354.00
             690.00,354.00 529.00,354.00 529.00,354.00
             529.00,354.00 529.00,287.00 529.00,287.00
             529.00,287.00 690.00,287.00 690.00,287.00 Z" />
    </a>
    <a xlink:href="http://www.google.com">
        <path id="Monday"
           fill="blue" stroke="black" stroke-width="1" ffill-opacity: 0.01;
          d="M 164.00,407.00
           C 164.00,407.00 164.00,474.00 164.00,474.00
             164.00,474.00 4.00,474.00 4.00,474.00
             4.00,474.00 4.00,407.00 4.00,407.00
             4.00,407.00 164.00,407.00 164.00,407.00 Z" />
    </a>
    <a xlink:href="http://www.google.com">
        <path id="Monday"
           fill="blue" stroke="black" stroke-width="1" ffill-opacity: 0.01;
          d="M 350.00,407.00
           C 350.00,407.00 350.00,474.00 350.00,474.00
             350.00,474.00 189.00,474.00 189.00,474.00
             189.00,474.00 189.00,407.00 189.00,407.00
             189.00,407.00 350.00,407.00 350.00,407.00 Z" />
    </a>
    <a xlink:href="http://www.google.com">
        <path id="Monday"
           fill="blue" stroke="black" stroke-width="1" ffill-opacity: 0.01;
          d="M 861.00,409.00
           C 861.00,409.00 861.00,476.00 861.00,476.00
             861.00,476.00 700.00,476.00 700.00,476.00
             700.00,476.00 700.00,409.00 700.00,409.00
             700.00,409.00 861.00,409.00 861.00,409.00 Z" />
    </a>
    <a xlink:href="http://www.google.com">
        <path id="Monday"
           fill="blue" stroke="black" stroke-width="1" ffill-opacity: 0.01;
          d="M 691.00,410.00
           C 691.00,410.00 691.00,477.00 691.00,477.00
             691.00,477.00 530.00,477.00 530.00,477.00
             530.00,477.00 530.00,410.00 530.00,410.00
             530.00,410.00 691.00,410.00 691.00,410.00 Z" />
    </a>
    <a xlink:href="http://www.google.com">
        <path id="Monday"
           fill="blue" stroke="black" stroke-width="1" ffill-opacity: 0.01;
          d="M 521.00,493.00
           C 521.00,493.00 521.00,560.00 521.00,560.00
             521.00,560.00 360.00,560.00 360.00,560.00
             360.00,560.00 360.00,493.00 360.00,493.00
             360.00,493.00 521.00,493.00 521.00,493.00 Z" />
    </a>
    <a xlink:href="http://www.google.com">
        <path id="Monday"
           fill="blue" stroke="black" stroke-width="1" ffill-opacity: 0.01;
          d="M 692.00,493.00
           C 692.00,493.00 692.00,560.00 692.00,560.00
             692.00,560.00 531.00,560.00 531.00,560.00
             531.00,560.00 531.00,493.00 531.00,493.00
             531.00,493.00 692.00,493.00 692.00,493.00 Z" />
    </a>
    <a xlink:href="http://www.google.com">
        <path id="Monday"
           fill="blue" stroke="black" stroke-width="1" ffill-opacity: 0.01;
          d="M 861.00,493.00
           C 861.00,493.00 861.00,560.00 861.00,560.00
             861.00,560.00 700.00,560.00 700.00,560.00
             700.00,560.00 700.00,493.00 700.00,493.00
             700.00,493.00 861.00,493.00 861.00,493.00 Z" />
    </a>
    <a xlink:href="http://www.google.com">
        <path id="Monday"
           fill="blue" stroke="black" stroke-width="1" ffill-opacity: 0.01;
          d="M 164.00,494.00
           C 164.00,494.00 164.00,561.00 164.00,561.00
             164.00,561.00 4.00,561.00 4.00,561.00
             4.00,561.00 4.00,494.00 4.00,494.00
             4.00,494.00 164.00,494.00 164.00,494.00 Z" />
    </a>
    <a xlink:href="http://www.google.com">
        <path id="Monday"
           fill="blue" stroke="black" stroke-width="1" ffill-opacity: 0.01;
          d="M 351.00,494.00
           C 351.00,494.00 351.00,561.00 351.00,561.00
             351.00,561.00 190.00,561.00 190.00,561.00
             190.00,561.00 190.00,494.00 190.00,494.00
             190.00,494.00 351.00,494.00 351.00,494.00 Z" />
    </a>
    <a xlink:href="http://www.google.com">
        <path id="Monday"
           fill="blue" stroke="black" stroke-width="1" ffill-opacity: 0.01;
          d="M 861.00,578.00
           C 861.00,578.00 861.00,645.00 861.00,645.00
             861.00,645.00 700.00,645.00 700.00,645.00
             700.00,645.00 700.00,578.00 700.00,578.00
             700.00,578.00 861.00,578.00 861.00,578.00 Z" />
    </a>
    <a xlink:href="http://www.google.com">
        <path id="Monday"
           fill="blue" stroke="black" stroke-width="1" ffill-opacity: 0.01;
          d="M 164.00,579.00
           C 164.00,579.00 164.00,646.00 164.00,646.00
             164.00,646.00 4.00,646.00 4.00,646.00
             4.00,646.00 4.00,579.00 4.00,579.00
             4.00,579.00 164.00,579.00 164.00,579.00 Z" />
    </a>
    <a xlink:href="http://www.google.com">
        <path id="Monday"
           fill="blue" stroke="black" stroke-width="1" ffill-opacity: 0.01;
          d="M 351.00,579.00
           C 351.00,579.00 351.00,646.00 351.00,646.00
             351.00,646.00 190.00,646.00 190.00,646.00
             190.00,646.00 190.00,579.00 190.00,579.00
             190.00,579.00 351.00,579.00 351.00,579.00 Z" />
    </a>
    <a xlink:href="http://www.google.com">
        <path id="Monday"
           fill="blue" stroke="black" stroke-width="1" ffill-opacity: 0.01;
          d="M 521.00,579.00
           C 521.00,579.00 521.00,646.00 521.00,646.00
             521.00,646.00 360.00,646.00 360.00,646.00
             360.00,646.00 360.00,579.00 360.00,579.00
             360.00,579.00 521.00,579.00 521.00,579.00 Z" />
    </a>
    <a xlink:href="http://www.google.com">
        <path id="Monday"
           fill="blue" stroke="black" stroke-width="1" ffill-opacity: 0.01;
          d="M 691.00,579.00
           C 691.00,579.00 691.00,646.00 691.00,646.00
             691.00,646.00 530.00,646.00 530.00,646.00
             530.00,646.00 530.00,579.00 530.00,579.00
             530.00,579.00 691.00,579.00 691.00,579.00 Z" />
    </a>
</svg>